<?xml version="1.0" encoding="utf-8"?>
<!-- Generator: Adobe Illustrator 16.0.4, SVG Export Plug-In . SVG Version: 6.00 Build 0)  -->
<!DOCTYPE svg PUBLIC "-//W3C//DTD SVG 1.1//EN" "http://www.w3.org/Graphics/SVG/1.1/DTD/svg11.dtd">
<svg version="1.1" id="Layer_1" xmlns="http://www.w3.org/2000/svg" xmlns:xlink="http://www.w3.org/1999/xlink" x="0px" y="0px"
	 width="400px" height="400px" viewBox="0 0 400 400" enable-background="new 0 0 400 400" xml:space="preserve">
<g>
	<path fill="#F8971D" d="M198.422,129.809c-59.728-0.848-112.966-22.496-148.358-56.07l-3.354-0.649
		c-14.566-0.009-26.414,56.939-26.457,127.196c-0.043,70.252,11.733,127.209,26.298,127.219l3.416-4.591
		c35.437-33.491,88.67-55.05,148.375-55.825l-0.004-0.022c61.111,0.04,115.702,21.843,151.785,56.033l3.414,4.598
		c14.565,0.01,26.414-56.938,26.459-127.19c0.04-70.257-11.735-127.214-26.302-127.223l-3.354,0.64
		c-36.125,34.182-90.773,55.947-151.919,55.907V129.809z"/>
	<path fill="none" stroke="#FFFFFF" stroke-width="9.1454" stroke-linecap="round" stroke-miterlimit="10" d="M347.631,314.057
		c-15.296-56.525-16.404-164.75,1.083-227.226"/>
</g>
</svg>
