<?xml version="1.0" encoding="utf-8"?>
<!-- Generator: Adobe Illustrator 16.0.4, SVG Export Plug-In . SVG Version: 6.00 Build 0)  -->
<!DOCTYPE svg PUBLIC "-//W3C//DTD SVG 1.1//EN" "http://www.w3.org/Graphics/SVG/1.1/DTD/svg11.dtd">
<svg version="1.1" xmlns="http://www.w3.org/2000/svg" xmlns:xlink="http://www.w3.org/1999/xlink" x="0px" y="0px" width="64px"
	 height="64px" viewBox="0 0 64 64" enable-background="new 0 0 64 64" xml:space="preserve">
<g id="Layer_1" display="none">
	<g display="inline">
		
			<line fill="none" stroke="#231F20" stroke-width="3" stroke-linecap="round" stroke-miterlimit="10" x1="25.076" y1="61.645" x2="39.951" y2="61.645"/>
		
			<line fill="none" stroke="#231F20" stroke-width="3" stroke-linecap="round" stroke-miterlimit="10" x1="24.226" y1="56.731" x2="41.084" y2="56.731"/>
		<g>
			<path fill="#231F20" d="M32.302,3.47c4.154,0.002,8.362,1.558,11.546,4.268c2.385,2.03,5.228,5.592,5.228,11.036
				c0,8.481-5.251,13.512-7.775,15.929c-0.409,0.393-0.732,0.702-1.003,0.996c-0.512,0.554-0.795,1.279-0.795,2.033v9.846
				c0,1.644-1.073,2.665-2.82,2.665c-1.494-0.005-2.938-0.007-4.38-0.007c-1.443,0-2.886,0.002-4.398,0.007
				c-1.728,0-2.802-1.021-2.802-2.665v-9.846c0-0.754-0.284-1.479-0.795-2.034c-0.271-0.293-0.594-0.603-1.003-0.995
				c-2.524-2.417-7.776-7.447-7.776-15.929c0-5.451,2.833-9.011,5.21-11.037C23.915,5.027,28.129,3.472,32.302,3.47 M32.302,0.47
				c-9.663,0.005-19.774,7.184-19.774,18.304s7.875,17.115,9.574,18.958c0,2.315,0,8.706,0,9.846c0,3.229,2.342,5.665,5.802,5.665
				c0.009,0,0.018,0,0.027,0c1.491-0.004,2.932-0.007,4.372-0.007c1.44,0,2.88,0.003,4.371,0.007c0.009,0,0.018,0,0.027,0
				c3.46,0,5.802-2.438,5.802-5.665c0-1.14,0-7.53,0-9.846c1.699-1.843,9.573-7.838,9.573-18.958S41.912,0.475,32.302,0.47
				L32.302,0.47z"/>
		</g>
		<path fill="none" stroke="#231F20" stroke-width="3" stroke-linecap="round" stroke-linejoin="round" stroke-miterlimit="10" d="
			M28.677,51.069V39.18c0-2.016,1.546-3.648,3.453-3.648l0,0c1.907,0,3.452,1.633,3.452,3.648v11.89"/>
		
			<line fill="none" stroke="#231F20" stroke-width="3" stroke-linecap="round" stroke-miterlimit="10" x1="32.13" y1="24.355" x2="32.13" y2="31.055"/>
		
			<line fill="none" stroke="#231F20" stroke-width="3" stroke-linecap="round" stroke-miterlimit="10" x1="38.564" y1="26.892" x2="36.03" y2="31.122"/>
		
			<line fill="none" stroke="#231F20" stroke-width="3" stroke-linecap="round" stroke-miterlimit="10" x1="25.417" y1="26.892" x2="27.951" y2="31.122"/>
	</g>
</g>
<g id="guides">
</g>
<g id="Layer_3" display="none">
	<g display="inline">
		<path fill="none" stroke="#231F20" stroke-width="2.9906" stroke-linejoin="round" stroke-miterlimit="10" d="M31.312,61.723"/>
		<path fill="none" stroke="#231F20" stroke-width="2.9906" stroke-linejoin="round" stroke-miterlimit="10" d="M14.456,7.514
			c-14.5-4.886-22.192,8.529-11.369,18.9c8.17,7.826,11.369,9.593,11.369,9.593"/>
		<path fill="none" stroke="#231F20" stroke-width="2.9906" stroke-linejoin="round" stroke-miterlimit="10" d="M32.794,61.723
			h11.818c0.736,0,0.798-1.374,0.027-1.383c-0.938-0.012-8.75-1.754-8.75-8.788c0-7.339,15.243-14.279,15.243-14.279V3.212
			c0-0.736-0.597-1.333-1.334-1.333H32.794H15.791c-0.737,0-1.334,0.597-1.334,1.333v34.06c0,0,15.242,6.94,15.242,14.279
			c0,7.034-7.81,8.776-8.749,8.788c-0.77,0.009-0.708,1.383,0.028,1.383H32.794z"/>
		<path fill="none" stroke="#231F20" stroke-width="2.9906" stroke-linejoin="round" stroke-miterlimit="10" d="M51.133,7.514
			c14.499-4.886,22.192,8.529,11.369,18.9c-8.17,7.826-11.369,9.593-11.369,9.593"/>
		
			<path fill="none" stroke="#231F20" stroke-width="2.9906" stroke-linecap="round" stroke-linejoin="round" stroke-miterlimit="10" d="
			M45.084,1.933c0,0,0,26.566,0,26.941c0,0.376-0.059,1.945-1.179,3.3c-1.119,1.355-8.311,8.604-8.311,8.604"/>
	</g>
</g>
<g id="Layer_4">
	<g>
		<g>
			<path fill="none" stroke="#231F20" stroke-width="2.9059" stroke-linejoin="round" stroke-miterlimit="10" d="M61.439,22.696
				c0,16.257-17.631,28.759-29.439,34.894C19.873,50.92,2.562,38.953,2.562,22.696C2.562,6.437,17.589-0.331,32,14.082
				C46.732-0.651,61.439,6.437,61.439,22.696z"/>
		</g>
		
			<path fill="none" stroke="#231F20" stroke-width="2.9059" stroke-linecap="round" stroke-linejoin="round" stroke-miterlimit="10" d="
			M24.67,16.018c-3.129-3.184-7.948-5.116-12.569-1.981c-4.621,3.137-5.149,11.196-1.64,16.182"/>
	</g>
</g>
</svg>
