<?xml version="1.0" encoding="utf-8"?>
<!-- Generator: Adobe Illustrator 16.0.4, SVG Export Plug-In . SVG Version: 6.00 Build 0)  -->
<!DOCTYPE svg PUBLIC "-//W3C//DTD SVG 1.1//EN" "http://www.w3.org/Graphics/SVG/1.1/DTD/svg11.dtd">
<svg version="1.1" xmlns="http://www.w3.org/2000/svg" xmlns:xlink="http://www.w3.org/1999/xlink" x="0px" y="0px" width="400px"
	 height="400px" viewBox="0 0 400 400" enable-background="new 0 0 400 400" xml:space="preserve">
<g id="Layer_1" display="none">
	<g display="inline">
		<path fill="#F8971D" d="M198.422,129.809c-59.728-0.848-112.966-22.496-148.358-56.07l-3.354-0.649
			c-14.566-0.009-26.414,56.939-26.457,127.196c-0.043,70.252,11.733,127.209,26.298,127.219l3.416-4.591
			c35.437-33.491,88.67-55.05,148.375-55.825l-0.004-0.022c61.111,0.04,115.702,21.843,151.785,56.033l3.414,4.598
			c14.565,0.01,26.414-56.938,26.459-127.19c0.04-70.257-11.735-127.214-26.302-127.223l-3.354,0.64
			c-36.125,34.182-90.773,55.947-151.919,55.907V129.809z"/>
		<path fill="none" stroke="#FFFFFF" stroke-width="9.1454" stroke-linecap="round" stroke-miterlimit="10" d="M347.631,314.057
			c-15.296-56.525-16.404-164.75,1.083-227.226"/>
	</g>
</g>
<g id="Layer_2">
	<ellipse fill="#F8971D" cx="201.012" cy="200.167" rx="126.387" ry="126.915"/>
	<path fill="none" stroke="#FFFFFF" stroke-width="3.2165" stroke-linecap="round" stroke-miterlimit="10" d="M239.131,79.698
		c-40.125,1.208-74.23,29.008-98.303,77.357c-24.032,48.269-26.882,120.875,0.802,155.123"/>
	<path fill="#FFFFFF" d="M125.984,203.452c4.72,1.353,9.958-2.54,11.702-8.682c1.742-6.146-0.668-12.226-5.387-13.574
		c-4.718-1.35-9.957,2.54-11.701,8.684C118.856,196.025,121.265,202.102,125.984,203.452z"/>
	<path fill="#FFFFFF" d="M297.763,252.392c3.021,0.862,6.882-3.418,8.624-9.563c1.745-6.145,0.71-11.828-2.31-12.694
		c-3.021-0.862-6.882,3.421-8.629,9.566C293.708,245.846,294.743,251.529,297.763,252.392z"/>
	<path fill="#FFFFFF" d="M168.438,112.972c1.914,2.5,7.551,1.371,12.587-2.518c5.037-3.892,7.568-9.071,5.653-11.571
		c-1.913-2.499-7.549-1.37-12.587,2.52C169.057,105.291,166.524,110.474,168.438,112.972z"/>
	<path fill="#FFFFFF" d="M305.862,153.183c2.522-1.246,2.287-6.897-0.519-12.621c-2.806-5.725-7.126-9.357-9.648-8.111
		c-2.515,1.243-2.28,6.895,0.525,12.623C299.026,150.797,303.347,154.431,305.862,153.183z"/>
	<path fill="none" stroke="#FFFFFF" stroke-width="1.6083" stroke-miterlimit="10" d="M292.384,268.743
		c8.912,2.544,19.706-7.983,24.113-23.514c4.403-15.536,0.755-30.195-8.16-32.744c-8.906-2.552-19.703,7.977-24.111,23.513
		C279.817,251.526,283.471,266.191,292.384,268.743z"/>
</g>
</svg>
