<?xml version="1.0" encoding="utf-8"?>
<!-- Generator: Adobe Illustrator 16.0.4, SVG Export Plug-In . SVG Version: 6.00 Build 0)  -->
<!DOCTYPE svg PUBLIC "-//W3C//DTD SVG 1.1//EN" "http://www.w3.org/Graphics/SVG/1.1/DTD/svg11.dtd">
<svg version="1.1" xmlns="http://www.w3.org/2000/svg" xmlns:xlink="http://www.w3.org/1999/xlink" x="0px" y="0px" width="64px"
	 height="64px" viewBox="0 0 64 64" enable-background="new 0 0 64 64" xml:space="preserve">
<g id="Layer_1">
	<g>
		
			<line fill="none" stroke="#231F20" stroke-width="3" stroke-linecap="round" stroke-miterlimit="10" x1="25.076" y1="61.645" x2="39.951" y2="61.645"/>
		
			<line fill="none" stroke="#231F20" stroke-width="3" stroke-linecap="round" stroke-miterlimit="10" x1="24.226" y1="56.731" x2="41.084" y2="56.731"/>
		<g>
			<path fill="#231F20" d="M32.302,3.47c4.154,0.002,8.362,1.558,11.546,4.268c2.385,2.03,5.228,5.592,5.228,11.036
				c0,8.481-5.251,13.512-7.775,15.929c-0.409,0.393-0.732,0.702-1.003,0.996c-0.512,0.554-0.795,1.279-0.795,2.033v9.846
				c0,1.644-1.073,2.665-2.82,2.665c-1.494-0.005-2.938-0.007-4.38-0.007c-1.443,0-2.886,0.002-4.398,0.007
				c-1.728,0-2.802-1.021-2.802-2.665v-9.846c0-0.754-0.284-1.479-0.795-2.034c-0.271-0.293-0.594-0.603-1.003-0.995
				c-2.524-2.417-7.776-7.447-7.776-15.929c0-5.451,2.833-9.011,5.21-11.037C23.915,5.027,28.129,3.472,32.302,3.47 M32.302,0.47
				c-9.663,0.005-19.774,7.184-19.774,18.304s7.875,17.115,9.574,18.958c0,2.315,0,8.706,0,9.846c0,3.229,2.342,5.665,5.802,5.665
				c0.009,0,0.018,0,0.027,0c1.491-0.004,2.932-0.007,4.372-0.007c1.44,0,2.88,0.003,4.371,0.007c0.009,0,0.018,0,0.027,0
				c3.46,0,5.802-2.438,5.802-5.665c0-1.14,0-7.53,0-9.846c1.699-1.843,9.573-7.838,9.573-18.958S41.912,0.475,32.302,0.47
				L32.302,0.47z"/>
		</g>
		<path fill="none" stroke="#231F20" stroke-width="3" stroke-linecap="round" stroke-linejoin="round" stroke-miterlimit="10" d="
			M28.677,51.069V39.18c0-2.016,1.546-3.648,3.453-3.648l0,0c1.907,0,3.452,1.633,3.452,3.648v11.89"/>
		
			<line fill="none" stroke="#231F20" stroke-width="3" stroke-linecap="round" stroke-miterlimit="10" x1="32.13" y1="24.355" x2="32.13" y2="31.055"/>
		
			<line fill="none" stroke="#231F20" stroke-width="3" stroke-linecap="round" stroke-miterlimit="10" x1="38.564" y1="26.892" x2="36.03" y2="31.122"/>
		
			<line fill="none" stroke="#231F20" stroke-width="3" stroke-linecap="round" stroke-miterlimit="10" x1="25.417" y1="26.892" x2="27.951" y2="31.122"/>
	</g>
</g>
<g id="guides">
</g>
</svg>
