<?xml version="1.0" encoding="utf-8"?>
<!-- Generator: Adobe Illustrator 16.0.4, SVG Export Plug-In . SVG Version: 6.00 Build 0)  -->
<!DOCTYPE svg PUBLIC "-//W3C//DTD SVG 1.1//EN" "http://www.w3.org/Graphics/SVG/1.1/DTD/svg11.dtd">
<svg version="1.1" xmlns="http://www.w3.org/2000/svg" xmlns:xlink="http://www.w3.org/1999/xlink" x="0px" y="0px" width="64px"
	 height="64px" viewBox="0 0 64 64" enable-background="new 0 0 64 64" xml:space="preserve">
<g id="Layer_1" display="none">
	<g display="inline">
		
			<line fill="none" stroke="#231F20" stroke-width="3" stroke-linecap="round" stroke-miterlimit="10" x1="25.076" y1="61.645" x2="39.951" y2="61.645"/>
		
			<line fill="none" stroke="#231F20" stroke-width="3" stroke-linecap="round" stroke-miterlimit="10" x1="24.226" y1="56.731" x2="41.084" y2="56.731"/>
		<g>
			<path fill="#231F20" d="M32.302,3.47c4.154,0.002,8.362,1.558,11.546,4.268c2.385,2.03,5.228,5.592,5.228,11.036
				c0,8.481-5.251,13.512-7.775,15.929c-0.409,0.393-0.732,0.702-1.003,0.996c-0.512,0.554-0.795,1.279-0.795,2.033v9.846
				c0,1.644-1.073,2.665-2.82,2.665c-1.494-0.005-2.938-0.007-4.38-0.007c-1.443,0-2.886,0.002-4.398,0.007
				c-1.728,0-2.802-1.021-2.802-2.665v-9.846c0-0.754-0.284-1.479-0.795-2.034c-0.271-0.293-0.594-0.603-1.003-0.995
				c-2.524-2.417-7.776-7.447-7.776-15.929c0-5.451,2.833-9.011,5.21-11.037C23.915,5.027,28.129,3.472,32.302,3.47 M32.302,0.47
				c-9.663,0.005-19.774,7.184-19.774,18.304s7.875,17.115,9.574,18.958c0,2.315,0,8.706,0,9.846c0,3.229,2.342,5.665,5.802,5.665
				c0.009,0,0.018,0,0.027,0c1.491-0.004,2.932-0.007,4.372-0.007c1.44,0,2.88,0.003,4.371,0.007c0.009,0,0.018,0,0.027,0
				c3.46,0,5.802-2.438,5.802-5.665c0-1.14,0-7.53,0-9.846c1.699-1.843,9.573-7.838,9.573-18.958S41.912,0.475,32.302,0.47
				L32.302,0.47z"/>
		</g>
		<path fill="none" stroke="#231F20" stroke-width="3" stroke-linecap="round" stroke-linejoin="round" stroke-miterlimit="10" d="
			M28.677,51.069V39.18c0-2.016,1.546-3.648,3.453-3.648l0,0c1.907,0,3.452,1.633,3.452,3.648v11.89"/>
		
			<line fill="none" stroke="#231F20" stroke-width="3" stroke-linecap="round" stroke-miterlimit="10" x1="32.13" y1="24.355" x2="32.13" y2="31.055"/>
		
			<line fill="none" stroke="#231F20" stroke-width="3" stroke-linecap="round" stroke-miterlimit="10" x1="38.564" y1="26.892" x2="36.03" y2="31.122"/>
		
			<line fill="none" stroke="#231F20" stroke-width="3" stroke-linecap="round" stroke-miterlimit="10" x1="25.417" y1="26.892" x2="27.951" y2="31.122"/>
	</g>
</g>
<g id="guides">
</g>
<g id="Layer_3" display="none">
	<g display="inline">
		<path fill="none" stroke="#231F20" stroke-width="2.9906" stroke-linejoin="round" stroke-miterlimit="10" d="M31.312,61.723"/>
		<path fill="none" stroke="#231F20" stroke-width="2.9906" stroke-linejoin="round" stroke-miterlimit="10" d="M14.456,7.514
			c-14.5-4.886-22.192,8.529-11.369,18.9c8.17,7.826,11.369,9.593,11.369,9.593"/>
		<path fill="none" stroke="#231F20" stroke-width="2.9906" stroke-linejoin="round" stroke-miterlimit="10" d="M32.794,61.723
			h11.818c0.736,0,0.798-1.374,0.027-1.383c-0.938-0.012-8.75-1.754-8.75-8.788c0-7.339,15.243-14.279,15.243-14.279V3.212
			c0-0.736-0.597-1.333-1.334-1.333H32.794H15.791c-0.737,0-1.334,0.597-1.334,1.333v34.06c0,0,15.242,6.94,15.242,14.279
			c0,7.034-7.81,8.776-8.749,8.788c-0.77,0.009-0.708,1.383,0.028,1.383H32.794z"/>
		<path fill="none" stroke="#231F20" stroke-width="2.9906" stroke-linejoin="round" stroke-miterlimit="10" d="M51.133,7.514
			c14.499-4.886,22.192,8.529,11.369,18.9c-8.17,7.826-11.369,9.593-11.369,9.593"/>
		
			<path fill="none" stroke="#231F20" stroke-width="2.9906" stroke-linecap="round" stroke-linejoin="round" stroke-miterlimit="10" d="
			M45.084,1.933c0,0,0,26.566,0,26.941c0,0.376-0.059,1.945-1.179,3.3c-1.119,1.355-8.311,8.604-8.311,8.604"/>
	</g>
</g>
<g id="Layer_4" display="none">
	<g display="inline">
		<g>
			<path fill="none" stroke="#231F20" stroke-width="2.9059" stroke-linejoin="round" stroke-miterlimit="10" d="M61.439,22.696
				c0,16.257-17.631,28.759-29.439,34.894C19.873,50.92,2.562,38.953,2.562,22.696C2.562,6.437,17.589-0.331,32,14.082
				C46.732-0.651,61.439,6.437,61.439,22.696z"/>
		</g>
		
			<path fill="none" stroke="#231F20" stroke-width="2.9059" stroke-linecap="round" stroke-linejoin="round" stroke-miterlimit="10" d="
			M24.67,16.018c-3.129-3.184-7.948-5.116-12.569-1.981c-4.621,3.137-5.149,11.196-1.64,16.182"/>
	</g>
</g>
<g id="Layer_5">
	<g>
		
			<line fill="none" stroke="#231F20" stroke-width="2.94" stroke-linecap="round" stroke-linejoin="round" stroke-miterlimit="10" x1="32.098" y1="43.545" x2="32.098" y2="60.916"/>
		<g>
			
				<line fill="none" stroke="#231F20" stroke-width="2.94" stroke-linecap="round" stroke-linejoin="round" stroke-miterlimit="10" x1="11.971" y1="56.829" x2="11.971" y2="42.673"/>
		</g>
		<g>
			
				<line fill="none" stroke="#231F20" stroke-width="2.94" stroke-linecap="round" stroke-linejoin="round" stroke-miterlimit="10" x1="52.23" y1="56.829" x2="52.23" y2="42.673"/>
		</g>
		<g>
			
				<line fill="none" stroke="#231F20" stroke-width="2.94" stroke-linecap="round" stroke-linejoin="round" stroke-miterlimit="10" x1="20.322" y1="39.094" x2="20.322" y2="22.353"/>
		</g>
		<g>
			
				<line fill="none" stroke="#231F20" stroke-width="2.94" stroke-linecap="round" stroke-linejoin="round" stroke-miterlimit="10" x1="43.744" y1="39.102" x2="43.744" y2="23"/>
		</g>
		<g>
			<path fill="#231F20" d="M32.074,3.25c3.94,0,6.997,4.242,4.793,8.819c-0.836,1.735-2.338,2.459-2.334,4.192
				c0.012,3.287,7.732,2.902,7.758,7.322c0.002,0.081,0.012,0.98,0.012,1.877c0.021-3.637,7.836-2.584,7.844-5.291
				c0.004-1.425-1.234-2.021-1.922-3.449c-1.812-3.771,0.549-7.245,3.969-7.256c0.006,0,0.01,0,0.016,0
				c3.24,0,5.752,3.491,3.939,7.256c-0.686,1.428-1.922,2.024-1.92,3.449c0.01,2.706,5.588,2.398,5.611,6.036
				c0,0.255,0,11.954,0,11.954h-3.096c0,0-0.275,13.808-0.373,17.487c-0.012,0.47-2.098,0.705-4.184,0.705s-4.172-0.235-4.184-0.705
				c-0.096-3.68-0.369-17.526-0.369-17.526H37.59c0,0-0.336,16.78-0.451,21.25h-0.01c-0.016,0.572-2.549,0.858-5.083,0.858
				c-2.534,0-5.069-0.286-5.085-0.858c-0.116-4.47-0.452-21.25-0.452-21.25H16.464c0,0-0.275,13.847-0.371,17.526
				c-0.012,0.47-2.097,0.705-4.183,0.705s-4.172-0.235-4.184-0.705c-0.095-3.68-0.372-17.487-0.372-17.487H4.258
				c0,0,0-11.699,0.001-11.954c0.024-3.637,5.602-3.33,5.609-6.036c0.003-1.425-1.234-2.021-1.92-3.449
				c-1.812-3.766,0.701-7.256,3.942-7.256c0.005,0,0.009,0,0.014,0c3.42,0.011,5.782,3.485,3.968,7.256
				c-0.685,1.428-1.925,2.024-1.922,3.449c0.009,2.706,7.824,1.653,7.847,5.291c0-0.896,0.008-1.796,0.009-1.877
				c0.027-4.42,7.749-4.035,7.758-7.322c0.004-1.733-1.499-2.457-2.333-4.192c-2.203-4.577,0.853-8.819,4.792-8.819
				c0.005,0,0.011,0,0.016,0h0.017C32.063,3.25,32.069,3.25,32.074,3.25 M32.074,0.31c-0.002,0-0.022,0-0.024,0
				c-2.927,0-5.592,1.484-7.155,3.971c-1.682,2.677-1.796,5.98-0.312,9.062c0.477,0.992,1.059,1.705,1.526,2.276
				c0.081,0.099,0.173,0.212,0.258,0.32c-0.419,0.227-1.003,0.485-1.44,0.679c-1.491,0.66-3.645,1.614-4.943,3.416
				c-0.65-0.223-1.271-0.388-1.791-0.526c-0.158-0.042-0.335-0.089-0.517-0.139c0.283-0.377,0.585-0.832,0.847-1.377
				c1.311-2.726,1.223-5.633-0.243-7.974c-1.365-2.18-3.745-3.486-6.366-3.495c-2.59,0-4.948,1.312-6.329,3.511
				C4.104,12.392,4,15.294,5.3,17.995c0.376,0.784,0.837,1.38,1.203,1.832c-0.158,0.083-0.317,0.164-0.453,0.232
				c-1.645,0.833-4.705,2.381-4.73,6.127c-0.001,0.259-0.001,10.775-0.001,11.974c0,1.624,1.316,2.94,2.94,2.94h0.215
				c0.087,4.26,0.247,12.016,0.314,14.623c0.093,3.569,4.666,3.569,7.123,3.569c2.458,0,7.035,0,7.122-3.574
				c0.068-2.604,0.228-10.388,0.314-14.657h4.281c0.102,5.006,0.309,15.09,0.395,18.386c0.103,3.723,5.062,3.723,8.024,3.723
				c2.833,0,7.492,0,7.982-3.251c0.029-0.153,0.045-0.311,0.051-0.472c0.084-3.296,0.291-13.38,0.393-18.386h4.281
				c0.086,4.271,0.246,12.054,0.312,14.662c0.086,3.569,4.664,3.569,7.123,3.569c2.457,0,7.033,0,7.123-3.572
				c0.068-2.604,0.229-10.36,0.314-14.62h0.215c1.623,0,2.939-1.316,2.939-2.94V26.205c-0.023-3.766-3.086-5.314-4.73-6.146
				c-0.137-0.069-0.297-0.149-0.453-0.232c0.365-0.452,0.826-1.048,1.203-1.835c1.299-2.697,1.195-5.598-0.285-7.956
				c-1.381-2.199-3.738-3.511-6.305-3.511c-2.646,0.009-5.025,1.314-6.391,3.494c-1.467,2.34-1.555,5.248-0.244,7.976
				c0.262,0.545,0.564,0.999,0.848,1.376c-0.184,0.05-0.359,0.098-0.518,0.139c-0.52,0.139-1.141,0.304-1.791,0.527
				c-1.299-1.803-3.453-2.757-4.943-3.417c-0.438-0.193-1.021-0.452-1.439-0.679c0.084-0.108,0.178-0.221,0.258-0.319
				c0.467-0.572,1.049-1.284,1.527-2.277c1.484-3.082,1.371-6.384-0.311-9.062C37.641,1.795,34.977,0.31,32.074,0.31L32.074,0.31z"
				/>
		</g>
	</g>
</g>
</svg>
