<?xml version="1.0" encoding="utf-8"?>
<!-- Generator: Adobe Illustrator 16.0.4, SVG Export Plug-In . SVG Version: 6.00 Build 0)  -->
<!DOCTYPE svg PUBLIC "-//W3C//DTD SVG 1.1//EN" "http://www.w3.org/Graphics/SVG/1.1/DTD/svg11.dtd">
<svg version="1.1" xmlns="http://www.w3.org/2000/svg" xmlns:xlink="http://www.w3.org/1999/xlink" x="0px" y="0px" width="350px"
	 height="116px" viewBox="0 0 350 116" enable-background="new 0 0 350 116" xml:space="preserve">
<g id="Layer_2">
</g>
<g id="Layer_1">
	<g>
		<path fill="#EF682D" d="M26.93,12.574c-3.521-2.054-6.539-2.976-9.85-2.976c-6.539,0-11.4,4.653-11.4,10.94
			c0,6.413,4.694,10.855,11.568,10.855c3.228,0,6.749-1.132,9.976-3.227v4.484c-2.808,1.467-5.868,2.515-10.353,2.515
			c-10.73,0-15.424-8.256-15.424-14.25c0-8.718,6.581-15.09,15.676-15.09c2.934,0,5.91,0.712,9.808,2.347V12.574z"/>
		<path fill="#EF682D" d="M49.61,5.826c9.431,0,15.382,6.706,15.382,14.67c0,7.713-5.784,14.669-15.466,14.669
			c-9.347,0-15.257-6.916-15.257-14.669C34.27,12.574,40.347,5.826,49.61,5.826z M49.61,31.394c6.413,0,11.149-4.652,11.149-10.897
			c0-6.287-4.736-10.898-11.149-10.898c-6.371,0-11.107,4.611-11.107,10.898C38.503,26.742,43.239,31.394,49.61,31.394z"/>
		<path fill="#EF682D" d="M98.997,34.789h-3.521L76.364,12.784v22.005h-3.856V6.204h3.27l19.365,22.131V6.204h3.855V34.789z"/>
		<path fill="#EF682D" d="M122.928,12.491c-2.431-2.306-4.778-2.976-6.707-2.976c-2.641,0-4.527,1.383-4.527,3.394
			c0,5.491,12.365,5.408,12.365,14.504c0,4.484-3.395,7.752-8.006,7.752c-3.101,0-5.616-0.837-8.005-2.64v-5.197
			c2.096,2.683,4.736,4.15,7.545,4.15c3.185,0,4.652-2.013,4.652-3.604c0-5.911-12.364-6.582-12.364-14.419
			c0-4.653,3.437-7.628,8.676-7.628c2.179,0,4.359,0.671,6.371,2.011V12.491z"/>
		<path fill="#EF682D" d="M149.575,9.891h-12.113v8.635h11.695v3.688h-11.695v8.887h12.491v3.688h-16.599V6.204h16.221V9.891z"/>
		<path fill="#EF682D" d="M167.909,6.204c5.784,0,9.388,3.059,9.388,8.005c0,3.312-1.718,5.784-4.777,7
			c2.598,1.718,4.191,4.358,6.371,7.922c1.215,1.97,1.928,2.934,3.897,5.658h-4.903l-3.772-5.868
			c-3.772-5.868-5.491-6.539-7.586-6.539h-1.718v12.407H160.7V6.204H167.909z M164.808,18.694h2.64c4.402,0,5.659-2.263,5.616-4.652
			c-0.041-2.683-1.635-4.318-5.616-4.318h-2.64V18.694z"/>
		<path fill="#EF682D" d="M197.448,35.04h-0.838L184.245,6.204h4.107l8.594,20.077l8.55-20.077h4.066L197.448,35.04z"/>
		<path fill="#EF682D" d="M238.229,34.789h-4.191l-3.814-8.425h-12.155l-3.604,8.425h-4.19l12.28-28.753h2.892L238.229,34.789z
			 M219.66,22.676h8.887l-4.611-10.353L219.66,22.676z"/>
		<path fill="#EF682D" d="M261.252,9.891h-9.892v24.898h-4.107V9.891h-9.892V6.204h23.891V9.891z"/>
		<path fill="#EF682D" d="M273.32,34.789h-4.107V6.204h4.107V34.789z"/>
		<path fill="#EF682D" d="M297.799,5.826c9.431,0,15.382,6.706,15.382,14.67c0,7.713-5.783,14.669-15.466,14.669
			c-9.348,0-15.257-6.916-15.257-14.669C282.458,12.574,288.535,5.826,297.799,5.826z M297.799,31.394
			c6.412,0,11.148-4.652,11.148-10.897c0-6.287-4.736-10.898-11.148-10.898c-6.371,0-11.107,4.611-11.107,10.898
			C286.691,26.742,291.428,31.394,297.799,31.394z"/>
		<path fill="#EF682D" d="M348.722,34.789H345.2l-19.112-22.005v22.005h-3.855V6.204h3.269l19.363,22.131V6.204h3.857V34.789z"/>
		<path fill="#EF682D" d="M55.244,106.293h-6.964L10.467,62.759v43.534H2.838V49.742h6.467l38.31,43.782V49.742h7.628V106.293z"/>
		<path fill="#EF682D" d="M127.765,106.293h-8.293l-7.546-16.668H87.879l-7.131,16.668h-8.292L96.751,49.41h5.723L127.765,106.293z
			 M91.03,82.33h17.579l-9.121-20.483L91.03,82.33z"/>
		<path fill="#EF682D" d="M175.61,57.037h-19.568v49.256h-8.126V57.037h-19.57v-7.295h47.264V57.037z"/>
		<path fill="#EF682D" d="M199.487,106.293h-8.126V49.742h8.126V106.293z"/>
		<path fill="#EF682D" d="M348.652,106.293h-6.964l-37.813-43.534v43.534h-7.628V49.742h6.468l38.31,43.782V49.742h7.628V106.293z"
			/>
	</g>
	<g>
		<path fill="#EF682D" d="M266.444,68.271c-1.38-3.247-4.13-5.105-6.97-5.959c-5.371-1.612-9.381-0.894-9.381-0.894
			s-0.967,7.6,0.398,11.92c0.417,1.324,6.328,1.609,6.119,1.853c0,0-6.533,1.567-7.766-0.778c-1.601-3.045-0.74-10.653-0.74-10.653
			s-4.359-2.683-11.301-0.398c-3.348,1.103-9.396,5.066-9.26,13.228c0.046,2.781,0.663,4.873,1.471,6.631
			c0.043,0.101,0.073,0.198,0.118,0.3c1.755,4.014-1.523,4.914-1.523,4.914s1.24,1.311,3.174,0.087
			c0.367-0.233,0.622-0.516,0.791-0.828c0.946,1.616,1.667,3.224,1.612,5.33h6.026v-6.066c0,0,3.933,1.876,8.328,0v6.066h6.382
			l0.062-10.383l8.341,0.049c0,0,1.76,6.142-5.245,6.747v3.417h-0.111c0.312,0.037,0.658,0.063,1.045,0.075
			c8.802,0.306,10.365-9.677,10.427-14.967C268.506,72.443,266.622,68.687,266.444,68.271z M264.271,77.017
			c-0.696,0-1.262-0.566-1.262-1.265c0-0.695,0.565-1.26,1.262-1.26s1.262,0.564,1.262,1.26
			C265.532,76.45,264.967,77.017,264.271,77.017z"/>
	</g>
	<path fill="#EF682D" d="M215.312,77.781c0-17.922,14.528-32.448,32.448-32.448c17.924,0,32.451,14.526,32.451,32.448
		c0,17.924-14.527,32.451-32.451,32.451C229.841,110.232,215.312,95.705,215.312,77.781z M247.761,103.352
		c14.126,0,25.571-11.447,25.571-25.57c0-14.122-11.445-25.573-25.571-25.573c-14.123,0-25.572,11.451-25.572,25.573
		C222.188,91.904,233.638,103.352,247.761,103.352z"/>
</g>
</svg>
