<?xml version="1.0" encoding="utf-8"?>
<!-- Generator: Adobe Illustrator 16.0.4, SVG Export Plug-In . SVG Version: 6.00 Build 0)  -->
<!DOCTYPE svg PUBLIC "-//W3C//DTD SVG 1.1//EN" "http://www.w3.org/Graphics/SVG/1.1/DTD/svg11.dtd">
<svg version="1.1" id="Layer_1" xmlns="http://www.w3.org/2000/svg" xmlns:xlink="http://www.w3.org/1999/xlink" x="0px" y="0px"
	 width="175px" height="58px" viewBox="0 0 175 58" enable-background="new 0 0 175 58" xml:space="preserve">
<g>
	<path fill="#EF682D" d="M13.381,6.302c-1.761-1.027-3.27-1.488-4.925-1.488c-3.27,0-5.7,2.327-5.7,5.471
		c0,3.206,2.347,5.427,5.784,5.427c1.614,0,3.375-0.566,4.988-1.613v2.242c-1.404,0.734-2.934,1.258-5.176,1.258
		c-5.365,0-7.712-4.128-7.712-7.125c0-4.359,3.291-7.545,7.838-7.545c1.467,0,2.955,0.356,4.904,1.174V6.302z"/>
	<path fill="#EF682D" d="M24.721,2.928c4.715,0,7.691,3.353,7.691,7.335c0,3.856-2.892,7.335-7.733,7.335
		c-4.673,0-7.628-3.458-7.628-7.335C17.051,6.302,20.09,2.928,24.721,2.928z M24.721,15.711c3.207,0,5.575-2.326,5.575-5.449
		c0-3.144-2.368-5.449-5.575-5.449c-3.186,0-5.554,2.306-5.554,5.449C19.167,13.386,21.536,15.711,24.721,15.711z"/>
	<path fill="#EF682D" d="M49.415,17.409h-1.76L38.098,6.407v11.002H36.17V3.116h1.635l9.682,11.065V3.116h1.928V17.409z"/>
	<path fill="#EF682D" d="M61.38,6.26c-1.216-1.152-2.389-1.487-3.354-1.487c-1.32,0-2.263,0.691-2.263,1.697
		c0,2.746,6.182,2.704,6.182,7.252c0,2.242-1.697,3.876-4.003,3.876c-1.55,0-2.808-0.419-4.002-1.32v-2.599
		c1.048,1.341,2.368,2.075,3.772,2.075c1.592,0,2.326-1.007,2.326-1.802c0-2.956-6.182-3.291-6.182-7.209
		c0-2.327,1.718-3.814,4.338-3.814c1.09,0,2.18,0.335,3.186,1.006V6.26z"/>
	<path fill="#EF682D" d="M74.704,4.96h-6.057v4.317h5.847v1.844h-5.847v4.443h6.246v1.844h-8.299V3.116h8.11V4.96z"/>
	<path fill="#EF682D" d="M83.87,3.116c2.893,0,4.694,1.53,4.694,4.003c0,1.656-0.858,2.892-2.389,3.5
		c1.299,0.859,2.096,2.179,3.186,3.961c0.607,0.985,0.964,1.467,1.948,2.829h-2.451l-1.886-2.934
		c-1.886-2.934-2.746-3.27-3.793-3.27H82.32v6.204h-2.054V3.116H83.87z M82.32,9.361h1.32c2.201,0,2.83-1.131,2.809-2.326
		c-0.021-1.341-0.817-2.159-2.809-2.159h-1.32V9.361z"/>
	<path fill="#EF682D" d="M98.64,17.535h-0.418L92.038,3.116h2.055l4.297,10.039l4.274-10.039h2.033L98.64,17.535z"/>
	<path fill="#EF682D" d="M119.03,17.409h-2.096l-1.907-4.213h-6.077l-1.803,4.213h-2.096l6.141-14.376h1.445L119.03,17.409z
		 M109.746,11.353h4.443l-2.306-5.176L109.746,11.353z"/>
	<path fill="#EF682D" d="M130.542,4.96h-4.945v12.449h-2.055V4.96h-4.945V3.116h11.945V4.96z"/>
	<path fill="#EF682D" d="M136.576,17.409h-2.054V3.116h2.054V17.409z"/>
	<path fill="#EF682D" d="M148.815,2.928c4.715,0,7.691,3.353,7.691,7.335c0,3.856-2.893,7.335-7.733,7.335
		c-4.674,0-7.628-3.458-7.628-7.335C141.146,6.302,144.184,2.928,148.815,2.928z M148.815,15.711c3.206,0,5.574-2.326,5.574-5.449
		c0-3.144-2.368-5.449-5.574-5.449c-3.186,0-5.554,2.306-5.554,5.449C143.262,13.386,145.63,15.711,148.815,15.711z"/>
	<path fill="#EF682D" d="M174.276,17.409h-1.76L162.96,6.407v11.002h-1.928V3.116h1.635l9.682,11.065V3.116h1.928V17.409z"/>
	<path fill="#EF682D" d="M27.538,53.161h-3.482L5.149,31.395v21.767H1.335V24.886h3.233l19.155,21.891V24.886h3.814V53.161z"/>
	<path fill="#EF682D" d="M63.799,53.161h-4.146l-3.773-8.334H43.855l-3.565,8.334h-4.146L48.292,24.72h2.861L63.799,53.161z
		 M45.431,41.18h8.79L49.66,30.938L45.431,41.18z"/>
	<path fill="#EF682D" d="M87.722,28.533h-9.785v24.628h-4.063V28.533h-9.785v-3.647h23.633V28.533z"/>
	<path fill="#EF682D" d="M99.659,53.161h-4.062V24.886h4.062V53.161z"/>
	<path fill="#EF682D" d="M174.242,53.161h-3.481l-18.907-21.767v21.767h-3.813V24.886h3.233l19.155,21.891V24.886h3.813V53.161z"/>
</g>
<g>
	<path fill="#EF682D" d="M133.138,34.15c-0.689-1.624-2.064-2.553-3.484-2.98c-2.686-0.806-4.69-0.446-4.69-0.446
		s-0.483,3.8,0.199,5.96c0.208,0.662,3.164,0.805,3.06,0.926c0,0-3.267,0.784-3.883-0.389c-0.801-1.522-0.37-5.326-0.37-5.326
		s-2.18-1.342-5.65-0.199c-1.674,0.551-4.698,2.533-4.63,6.613c0.023,1.391,0.332,2.437,0.735,3.315
		c0.021,0.05,0.036,0.099,0.06,0.149c0.877,2.008-0.762,2.457-0.762,2.457s0.619,0.656,1.586,0.044
		c0.184-0.116,0.312-0.258,0.396-0.414c0.473,0.808,0.833,1.612,0.806,2.665h3.013v-3.033c0,0,1.967,0.938,4.164,0v3.033h3.191
		l0.031-5.191l4.17,0.024c0,0,0.88,3.071-2.623,3.374v1.708h-0.055c0.155,0.019,0.328,0.032,0.521,0.038
		c4.401,0.152,5.184-4.839,5.214-7.484C134.169,36.236,133.228,34.357,133.138,34.15z M132.052,38.523
		c-0.349,0-0.631-0.283-0.631-0.633c0-0.348,0.282-0.63,0.631-0.63c0.348,0,0.631,0.282,0.631,0.63
		C132.683,38.24,132.399,38.523,132.052,38.523z"/>
</g>
<path fill="#EF682D" d="M107.572,38.905c0-8.961,7.265-16.224,16.224-16.224c8.963,0,16.227,7.263,16.227,16.224
	c0,8.962-7.264,16.226-16.227,16.226C114.837,55.131,107.572,47.867,107.572,38.905z M123.796,51.69
	c7.063,0,12.786-5.724,12.786-12.785s-5.723-12.786-12.786-12.786c-7.061,0-12.785,5.725-12.785,12.786S116.735,51.69,123.796,51.69
	z"/>
</svg>
